<svg width="853" height="915" viewBox="0 0 853 915" fill="none" xmlns="http://www.w3.org/2000/svg">
<path d="M29.9999 0H853V915C853 915 661.364 910.644 562.5 855C403.359 765.429 551.262 587.795 432 449.5C316.506 315.574 124.433 393.024 29.9999 243.5C-35.4251 139.907 29.9999 0 29.9999 0Z" fill="url(#paint0_linear_15_66)"/>
<path d="M29.9999 0H853V915C853 915 661.364 910.644 562.5 855C403.359 765.429 551.262 587.795 432 449.5C316.506 315.574 124.433 393.024 29.9999 243.5C-35.4251 139.907 29.9999 0 29.9999 0Z" fill="url(#paint1_linear_15_66)"/>
<defs>
<linearGradient id="paint0_linear_15_66" x1="188.043" y1="-6.2628e-05" x2="734.542" y2="948" gradientUnits="userSpaceOnUse">
<stop stop-color="#EFB55C"/>
<stop offset="1" stop-color="#E16A37"/>
</linearGradient>
<linearGradient id="paint1_linear_15_66" x1="188.043" y1="-6.2628e-05" x2="734.542" y2="948" gradientUnits="userSpaceOnUse">
<stop stop-color="#EFB55C"/>
<stop offset="1" stop-color="#E16A37"/>
</linearGradient>
</defs>
</svg>
