<svg width="124" height="129" viewBox="0 0 124 129" fill="none" xmlns="http://www.w3.org/2000/svg">
<path d="M51.7021 6.18521C58.0397 2.37866 65.9603 2.37866 72.2979 6.18521L105.991 26.4226C112.011 30.0382 115.694 36.5457 115.694 43.5677V85.4323C115.694 92.4543 112.011 98.9618 105.991 102.577L72.2979 122.815C65.9603 126.621 58.0397 126.621 51.7021 122.815L18.0086 102.577C11.989 98.9618 8.30642 92.4543 8.30642 85.4323V43.5677C8.30642 36.5457 11.989 30.0382 18.0086 26.4226L51.7021 6.18521Z" fill="url(#paint0_linear_75_4)"/>
<path d="M79.5112 47.2656C74.8348 42.5781 68.6071 40 61.9888 40C48.3281 40 37.2121 51.1161 37.2121 64.7768C37.2121 69.1406 38.3504 73.404 40.5156 77.1652L37 90L50.1362 86.5513C53.7522 88.5268 57.8259 89.5647 61.9777 89.5647H61.9888C75.6384 89.5647 87 78.4487 87 64.7879C87 58.1696 84.1875 51.9531 79.5112 47.2656ZM61.9888 85.3906C58.2835 85.3906 54.6562 84.3973 51.4978 82.5223L50.75 82.0759L42.9598 84.1183L45.0357 76.5179L44.5446 75.7366C42.4799 72.4554 41.3973 68.6719 41.3973 64.7768C41.3973 53.4263 50.6384 44.1853 62 44.1853C67.5022 44.1853 72.6696 46.3281 76.5536 50.2232C80.4375 54.1183 82.8259 59.2857 82.8147 64.7879C82.8147 76.1496 73.3393 85.3906 61.9888 85.3906ZM73.2835 69.9665C72.6696 69.654 69.6228 68.1585 69.0536 67.9576C68.4844 67.7455 68.0714 67.6451 67.6585 68.2701C67.2455 68.8951 66.0625 70.279 65.6942 70.7031C65.3371 71.1161 64.9688 71.1719 64.3549 70.8594C60.7165 69.0402 58.3281 67.6116 55.9286 63.4933C55.2924 62.3996 56.5647 62.4777 57.7478 60.1116C57.9487 59.6987 57.8482 59.3415 57.692 59.029C57.5357 58.7165 56.2969 55.6696 55.7835 54.4308C55.2812 53.2254 54.7679 53.3929 54.3884 53.3705C54.0312 53.3482 53.6183 53.3482 53.2054 53.3482C52.7924 53.3482 52.1228 53.5045 51.5536 54.1183C50.9844 54.7433 49.3884 56.2388 49.3884 59.2857C49.3884 62.3326 51.6094 65.279 51.9107 65.692C52.2232 66.1049 56.2746 72.3549 62.4911 75.0446C66.4196 76.7411 67.9598 76.8862 69.9241 76.596C71.1183 76.4174 73.5848 75.1004 74.0982 73.6496C74.6116 72.1987 74.6116 70.9598 74.4554 70.7031C74.3103 70.4241 73.8973 70.2679 73.2835 69.9665Z" fill="white"/>
<defs>
<linearGradient id="paint0_linear_75_4" x1="62" y1="0" x2="62" y2="129" gradientUnits="userSpaceOnUse">
<stop stop-color="#E26D38"/>
<stop offset="1" stop-color="#C75555"/>
</linearGradient>
</defs>
</svg>
