<svg width="124" height="129" viewBox="0 0 124 129" fill="none" xmlns="http://www.w3.org/2000/svg">
<path d="M51.7021 6.18521C58.0397 2.37866 65.9603 2.37866 72.2979 6.18521L105.991 26.4226C112.011 30.0382 115.694 36.5457 115.694 43.5677V85.4323C115.694 92.4543 112.011 98.9618 105.991 102.577L72.2979 122.815C65.9603 126.621 58.0397 126.621 51.7021 122.815L18.0086 102.577C11.989 98.9618 8.30642 92.4543 8.30642 85.4323V43.5677C8.30642 36.5457 11.989 30.0382 18.0086 26.4226L51.7021 6.18521Z" fill="url(#paint0_linear_75_3)"/>
<path d="M62.0056 52.1806C54.9113 52.1806 49.1891 57.9042 49.1891 65C49.1891 72.0958 54.9113 77.8194 62.0056 77.8194C69.0998 77.8194 74.8221 72.0958 74.8221 65C74.8221 57.9042 69.0998 52.1806 62.0056 52.1806ZM62.0056 73.3343C57.4211 73.3343 53.6732 69.5967 53.6732 65C53.6732 60.4033 57.4099 56.6657 62.0056 56.6657C66.6012 56.6657 70.338 60.4033 70.338 65C70.338 69.5967 66.5901 73.3343 62.0056 73.3343ZM78.3358 51.6563C78.3358 53.3186 76.9972 54.6463 75.3464 54.6463C73.6843 54.6463 72.3569 53.3075 72.3569 51.6563C72.3569 50.005 73.6955 48.6662 75.3464 48.6662C76.9972 48.6662 78.3358 50.005 78.3358 51.6563ZM86.8243 54.691C86.6347 50.6856 85.72 47.1377 82.7864 44.2145C79.8639 41.2914 76.3168 40.3765 72.3123 40.1757C68.1852 39.9414 55.8148 39.9414 51.6877 40.1757C47.6944 40.3654 44.1472 41.2803 41.2136 44.2034C38.28 47.1265 37.3765 50.6744 37.1757 54.6798C36.9414 58.8079 36.9414 71.181 37.1757 75.309C37.3653 79.3144 38.28 82.8623 41.2136 85.7855C44.1472 88.7086 47.6832 89.6235 51.6877 89.8243C55.8148 90.0586 68.1852 90.0586 72.3123 89.8243C76.3168 89.6346 79.8639 88.7197 82.7864 85.7855C85.7089 82.8623 86.6235 79.3144 86.8243 75.309C87.0586 71.181 87.0586 58.819 86.8243 54.691ZM81.4925 79.7384C80.6224 81.9251 78.9381 83.6098 76.7407 84.4912C73.4501 85.7966 65.6419 85.4954 62.0056 85.4954C58.3692 85.4954 50.5499 85.7855 47.2705 84.4912C45.0842 83.621 43.3999 81.9363 42.5187 79.7384C41.2136 76.4471 41.5148 68.6372 41.5148 65C41.5148 61.3628 41.2248 53.5418 42.5187 50.2616C43.3887 48.0749 45.0731 46.3902 47.2705 45.5088C50.5611 44.2034 58.3692 44.5046 62.0056 44.5046C65.6419 44.5046 73.4612 44.2145 76.7407 45.5088C78.9269 46.379 80.6113 48.0637 81.4925 50.2616C82.7975 53.5529 82.4964 61.3628 82.4964 65C82.4964 68.6372 82.7975 76.4582 81.4925 79.7384Z" fill="white"/>
<defs>
<linearGradient id="paint0_linear_75_3" x1="62" y1="0" x2="62" y2="129" gradientUnits="userSpaceOnUse">
<stop stop-color="#E26D38"/>
<stop offset="1" stop-color="#C75555"/>
</linearGradient>
</defs>
</svg>
