<svg width="124" height="129" viewBox="0 0 124 129" fill="none" xmlns="http://www.w3.org/2000/svg">
<path d="M51.7021 6.18521C58.0397 2.37866 65.9603 2.37866 72.2979 6.18521L105.991 26.4226C112.011 30.0382 115.694 36.5457 115.694 43.5677V85.4323C115.694 92.4543 112.011 98.9618 105.991 102.577L72.2979 122.815C65.9603 126.621 58.0397 126.621 51.7021 122.815L18.0086 102.577C11.989 98.9618 8.30642 92.4543 8.30642 85.4323V43.5677C8.30642 36.5457 11.989 30.0382 18.0086 26.4226L51.7021 6.18521Z" fill="url(#paint0_linear_75_5)"/>
<path d="M37 52.25C37 48.7979 39.7979 46 43.25 46H80.75C84.1973 46 87 48.7979 87 52.25V77.25C87 80.6973 84.1973 83.5 80.75 83.5H43.25C39.7979 83.5 37 80.6973 37 77.25V52.25ZM41.6875 52.25V54.4082L58.5332 68.2363C60.5449 69.8965 63.4551 69.8965 65.4668 68.2363L82.3125 54.4082V52.1621C82.3125 51.3906 81.6094 50.5996 80.75 50.5996H43.25C42.3867 50.5996 41.6875 51.3906 41.6875 52.1621V52.25ZM41.6875 60.4727V77.25C41.6875 78.1094 42.3867 78.8125 43.25 78.8125H80.75C81.6094 78.8125 82.3125 78.1094 82.3125 77.25V60.4727L68.4453 71.8594C64.6953 74.9355 59.3047 74.9355 55.4668 71.8594L41.6875 60.4727Z" fill="white"/>
<defs>
<linearGradient id="paint0_linear_75_5" x1="62" y1="0" x2="62" y2="129" gradientUnits="userSpaceOnUse">
<stop stop-color="#E26D38"/>
<stop offset="1" stop-color="#C75555"/>
</linearGradient>
</defs>
</svg>
