<svg width="30" height="30" viewBox="0 0 30 30" fill="none" xmlns="http://www.w3.org/2000/svg">
<path d="M0.785069 4.57572C-0.26169 3.52896 -0.26169 1.83183 0.785069 0.785069C1.83183 -0.26169 3.52896 -0.26169 4.57572 0.785069L15 11.2094L25.4243 0.785069C26.471 -0.26169 28.1682 -0.26169 29.2149 0.785069C30.2617 1.83183 30.2617 3.52896 29.2149 4.57572L18.7906 15L29.2149 25.4243C30.2617 26.471 30.2617 28.1682 29.2149 29.2149C28.1682 30.2617 26.471 30.2617 25.4243 29.2149L15 18.7906L4.57572 29.2149C3.52896 30.2617 1.83183 30.2617 0.785069 29.2149C-0.26169 28.1682 -0.26169 26.471 0.785069 25.4243L11.2094 15L0.785069 4.57572Z" fill="#C75555"/>
</svg>
