<svg width="31" height="30" viewBox="0 0 31 30" fill="none" xmlns="http://www.w3.org/2000/svg">
<path d="M30.0065 15.5206C30.0065 23.5008 23.5072 30 15.5271 30C12.3673 30 9.3712 28.9925 6.84846 27.0989C5.93404 26.4141 5.74908 25.1162 6.43516 24.2011C7.1213 23.2899 8.41985 23.1037 9.33233 23.7889C11.1327 25.1411 13.2772 25.8544 15.5335 25.8544C21.2309 25.8547 25.8676 21.2179 25.8676 15.5206C25.8676 9.82324 21.2328 5.18646 15.5335 5.18646C12.2807 5.18776 9.22182 6.74499 7.28174 9.31235H11.3818C12.5245 9.31235 13.4512 10.2378 13.4512 11.3818C13.4512 12.5258 12.5264 13.4512 11.3818 13.4512H2.06941C0.926708 13.4512 0 12.5258 0 11.3818V2.06941C0 0.925415 0.926708 0 2.06941 0C3.21211 0 4.13882 0.925415 4.13882 2.06941V6.61112C6.86139 3.14163 11.0002 1.04182 15.5271 1.04182C23.5072 1.04182 30.0065 7.54042 30.0065 15.5206Z" fill="#C75555"/>
</svg>
