<svg width="709" height="582" viewBox="0 0 709 582" fill="none" xmlns="http://www.w3.org/2000/svg">
<g clip-path="url(#clip0_15_295)">
<path d="M518.948 479.133C524.577 481.111 530.621 481.607 536.497 480.572C542.373 479.537 547.884 477.006 552.498 473.223C564.249 463.361 567.933 447.113 570.931 432.069L579.798 387.57L561.234 400.351C547.884 409.542 534.234 419.028 524.99 432.342C515.747 445.655 511.712 463.829 519.139 478.235" fill="#C75555"/>
<path d="M520.535 533.008C518.656 519.323 516.724 505.463 518.042 491.631C519.212 479.347 522.96 467.35 530.591 457.512C534.641 452.3 539.569 447.835 545.154 444.317C546.61 443.397 547.95 445.705 546.5 446.62C536.837 452.727 529.363 461.745 525.155 472.373C520.508 484.192 519.762 497.075 520.563 509.63C521.047 517.223 522.073 524.766 523.108 532.299C523.189 532.639 523.138 532.998 522.965 533.303C522.792 533.608 522.51 533.835 522.176 533.94C521.835 534.032 521.471 533.985 521.164 533.811C520.857 533.637 520.631 533.348 520.535 533.008V533.008Z" fill="#F2F2F2"/>
<path d="M538.632 508.792C541.046 512.461 544.365 515.447 548.268 517.461C552.171 519.475 556.527 520.451 560.916 520.293C572.197 519.757 581.601 511.885 590.067 504.411L615.107 482.304L598.535 481.511C586.617 480.941 574.392 480.409 563.04 484.084C551.689 487.759 541.22 496.603 539.144 508.352" fill="#C75555"/>
<path d="M515.225 540.875C524.268 524.874 534.758 507.092 553.501 501.408C558.712 499.833 564.177 499.269 569.6 499.746C571.31 499.893 570.883 502.528 569.177 502.381C560.086 501.626 551.013 504.026 543.484 509.178C536.24 514.108 530.6 520.963 525.826 528.232C522.902 532.685 520.282 537.326 517.662 541.961C516.825 543.443 514.378 542.373 515.225 540.875V540.875Z" fill="#F2F2F2"/>
<path d="M292.334 428.469C281.24 432.368 269.328 433.345 257.747 431.305C246.166 429.265 235.305 424.277 226.212 416.822C203.052 397.385 195.791 365.363 189.883 335.712C184.057 306.479 178.232 277.245 172.407 248.011L208.994 273.201C235.304 291.316 262.208 310.012 280.425 336.25C298.643 362.489 306.595 398.308 291.958 426.699" fill="#C75555"/>
<path d="M289.206 534.649C292.909 507.679 296.717 480.361 294.12 453.102C291.813 428.892 284.426 405.246 269.388 385.858C261.406 375.586 251.693 366.785 240.686 359.851C237.816 358.04 235.174 362.588 238.032 364.391C257.077 376.427 271.807 394.199 280.1 415.145C289.259 438.439 290.729 463.831 289.151 488.575C288.197 503.539 286.174 518.405 284.135 533.251C283.975 533.923 284.075 534.63 284.416 535.23C284.757 535.831 285.313 536.279 285.972 536.486C286.644 536.667 287.361 536.575 287.966 536.232C288.572 535.888 289.017 535.319 289.206 534.649V534.649Z" fill="#F2F2F2"/>
<path d="M253.539 486.924C248.781 494.155 242.241 500.039 234.549 504.008C226.857 507.978 218.271 509.9 209.621 509.589C187.388 508.534 168.853 493.019 152.168 478.288L102.818 434.719L135.48 433.156C158.968 432.032 183.063 430.984 205.434 438.227C227.806 445.47 248.439 462.9 252.53 486.055" fill="#C75555"/>
<path d="M299.671 550.153C281.848 518.619 261.175 483.572 224.235 472.371C213.964 469.266 203.194 468.155 192.505 469.095C189.136 469.385 189.978 474.578 193.34 474.288C211.257 472.8 229.139 477.531 243.976 487.683C258.253 497.4 269.37 510.91 278.779 525.236C284.542 534.012 289.704 543.16 294.868 552.295C296.518 555.214 301.341 553.107 299.671 550.153V550.153Z" fill="#F2F2F2"/>
<path d="M162.107 123.227L8.64827 91.0789L6.654 90.6621C5.63837 90.4478 4.58287 90.5246 3.6089 90.8834C2.63493 91.2423 1.78203 91.8687 1.14829 92.6907C0.51455 93.5127 0.125716 94.4968 0.026481 95.53C-0.0727538 96.5631 0.12166 97.6033 0.587353 98.5309L62.1725 221.734C62.571 222.525 63.1539 223.21 63.8721 223.729C64.5903 224.248 65.4227 224.587 66.2993 224.718C67.1787 224.849 68.0768 224.765 68.9162 224.471C69.7555 224.178 70.5108 223.685 71.1168 223.034L113.118 178.221C113.417 177.894 113.78 177.633 114.185 177.453C114.589 177.274 115.027 177.18 115.47 177.177C116.071 177.165 116.665 177.317 117.187 177.617C117.709 177.916 118.14 178.352 118.434 178.877L127.186 194.837C127.745 195.902 128.644 196.748 129.74 197.243C130.836 197.737 132.066 197.851 133.234 197.565L133.277 197.555C134.459 197.298 135.52 196.65 136.29 195.716C137.059 194.783 137.493 193.617 137.52 192.408L139.035 155.437C139.053 154.975 139.165 154.523 139.365 154.107C139.58 153.695 139.873 153.329 140.228 153.029L164.493 132.87C165.29 132.207 165.885 131.333 166.209 130.348C166.532 129.363 166.572 128.307 166.323 127.3C166.074 126.294 165.546 125.378 164.801 124.658C164.055 123.937 163.121 123.441 162.107 123.227ZM163.09 131.177L138.825 151.336C138.509 151.593 138.223 151.886 137.972 152.208L8.39077 94.3704C8.27647 94.318 8.1573 94.277 8.03498 94.248C7.53575 94.1225 7.00836 94.1754 6.54402 94.3975C6.07968 94.6197 5.7076 94.9971 5.49208 95.4646C5.27657 95.932 5.23119 96.46 5.36381 96.9574C5.49643 97.4547 5.7987 97.8901 6.21834 98.1882L112.941 175.605C112.403 175.888 111.919 176.263 111.508 176.711L69.5073 221.524C69.1429 221.912 68.6901 222.206 68.1875 222.382C67.685 222.557 67.1474 222.609 66.6205 222.532C66.0937 222.456 65.5931 222.253 65.1613 221.942C64.7295 221.63 64.3793 221.219 64.1404 220.744L2.55531 97.5407C2.27997 96.984 2.16652 96.3612 2.22792 95.7432C2.28931 95.1252 2.52308 94.5368 2.90256 94.0452C3.28205 93.5535 3.79198 93.1784 4.37431 92.9624C4.95664 92.7464 5.58794 92.6983 6.19627 92.8236L8.23787 93.2521L161.648 125.389C162.258 125.517 162.818 125.814 163.266 126.246C163.715 126.678 164.032 127.227 164.183 127.831C164.333 128.435 164.31 129.069 164.117 129.661C163.924 130.252 163.568 130.778 163.09 131.177Z" fill="#CCCCCC"/>
<path d="M162.107 123.227L8.64827 91.0789L6.654 90.6621C5.63837 90.4478 4.58287 90.5246 3.6089 90.8834C2.63493 91.2423 1.78203 91.8687 1.14829 92.6907C0.51455 93.5127 0.125716 94.4968 0.026481 95.53C-0.0727538 96.5631 0.12166 97.6033 0.587353 98.5309L62.1725 221.734C62.571 222.525 63.1539 223.21 63.8721 223.729C64.5903 224.248 65.4227 224.587 66.2993 224.718C67.1787 224.849 68.0768 224.765 68.9162 224.471C69.7555 224.178 70.5108 223.685 71.1168 223.034L113.118 178.221C113.417 177.894 113.78 177.633 114.185 177.453C114.589 177.274 115.027 177.18 115.47 177.177C116.071 177.165 116.665 177.317 117.187 177.617C117.709 177.916 118.14 178.352 118.434 178.877L127.186 194.837C127.745 195.902 128.644 196.748 129.74 197.243C130.836 197.737 132.066 197.851 133.234 197.565L133.277 197.555C134.459 197.298 135.52 196.65 136.29 195.716C137.059 194.783 137.493 193.617 137.52 192.408L139.035 155.437C139.053 154.975 139.165 154.523 139.365 154.107C139.58 153.695 139.873 153.329 140.228 153.029L164.493 132.87C165.29 132.207 165.885 131.333 166.209 130.348C166.532 129.363 166.572 128.307 166.323 127.3C166.074 126.294 165.546 125.378 164.801 124.658C164.055 123.937 163.121 123.441 162.107 123.227ZM163.09 131.177L138.825 151.336C138.509 151.593 138.223 151.886 137.972 152.208C137.746 152.494 137.551 152.804 137.391 153.132C137.223 153.467 137.091 153.819 136.997 154.182L137 154.193C136.901 154.571 136.845 154.959 136.833 155.35L135.319 192.32C135.309 193.047 135.051 193.749 134.589 194.31C134.127 194.871 133.488 195.259 132.777 195.408L132.755 195.413C132.054 195.592 131.314 195.528 130.653 195.233C129.993 194.938 129.452 194.429 129.118 193.787L120.363 177.816C119.912 176.995 119.258 176.302 118.464 175.804C117.671 175.306 116.762 175.02 115.827 174.971L115.816 174.973C115.69 174.968 115.565 174.963 115.442 174.968C114.569 174.974 113.71 175.192 112.941 175.605C112.403 175.888 111.919 176.263 111.508 176.711L69.5073 221.524C69.1429 221.912 68.6901 222.206 68.1875 222.382C67.685 222.557 67.1474 222.609 66.6205 222.532C66.0937 222.456 65.5931 222.253 65.1613 221.942C64.7295 221.63 64.3793 221.219 64.1404 220.743L2.55531 97.5407C2.27997 96.984 2.16652 96.3612 2.22792 95.7432C2.28931 95.1252 2.52308 94.5368 2.90256 94.0452C3.28205 93.5535 3.79198 93.1784 4.37431 92.9624C4.95664 92.7464 5.58794 92.6983 6.19627 92.8236L8.23787 93.2521L161.648 125.389C162.258 125.517 162.818 125.814 163.266 126.246C163.715 126.678 164.032 127.227 164.183 127.831C164.333 128.435 164.31 129.069 164.117 129.661C163.924 130.252 163.568 130.778 163.09 131.177Z" fill="#3F3D56"/>
<path d="M163.09 131.177L138.825 151.336C138.509 151.593 138.223 151.886 137.972 152.208C137.746 152.494 137.551 152.804 137.391 153.131C137.223 153.467 137.091 153.819 136.997 154.182L137 154.193L7 96L115.816 174.973L115.81 174.973C115.686 174.968 115.563 174.963 115.442 174.968C114.569 174.974 113.71 175.192 112.941 175.605C112.403 175.888 111.919 176.263 111.508 176.711L69.5073 221.523C69.1429 221.912 68.6901 222.206 68.1875 222.382C67.6849 222.557 67.1474 222.609 66.6205 222.532C66.0937 222.456 65.5931 222.253 65.1613 221.942C64.7295 221.63 64.3793 221.219 64.1404 220.743L2.55531 97.5407C2.27996 96.984 2.16652 96.3611 2.22791 95.7431C2.2893 95.1251 2.52307 94.5368 2.90256 94.0452C3.28204 93.5535 3.79197 93.1783 4.37431 92.9624C4.95664 92.7464 5.58793 92.6983 6.19626 92.8236L8.23786 93.2521L161.648 125.389C162.258 125.517 162.818 125.814 163.266 126.246C163.715 126.678 164.032 127.227 164.183 127.831C164.333 128.435 164.31 129.069 164.117 129.661C163.924 130.252 163.568 130.778 163.09 131.177Z" fill="white"/>
<path d="M138.463 152.424L137.564 154.437L137 154.193L136.997 154.182L7.51845 96.4004L115.816 174.973L115.827 174.971L116.113 175.188L114.824 176.974L112.941 175.605L6.2184 98.1882C5.79874 97.8901 5.49647 97.4547 5.36384 96.9574C5.23121 96.46 5.27656 95.932 5.49208 95.4645C5.7076 94.9971 6.07972 94.6197 6.54409 94.3975C7.00845 94.1754 7.53588 94.1224 8.03511 94.248C8.15743 94.277 8.2766 94.3181 8.39091 94.3704L137.972 152.208L138.463 152.424Z" fill="#3F3D56"/>
<path d="M471.636 306.454L477.236 361.204L477.346 362.328L479.011 378.565L492.68 512.248V512.27L495.337 538.207C494.299 539.6 493.381 541.079 492.592 542.627C490.184 547.379 489.007 552.659 489.169 557.984C489.33 563.309 490.826 568.508 493.518 573.105C500.187 571.429 506.764 569.519 513.25 567.373C526.667 562.96 539.752 557.597 552.406 551.324C551.09 544.082 547.308 537.52 541.702 532.75L527.978 367.861L526.776 353.4L522.863 306.454H471.636Z" fill="#FFB8B8"/>
<path d="M510.887 157.335C539.191 129.033 539.191 83.1469 510.887 54.8449C482.583 26.543 436.692 26.5431 408.388 54.845C380.084 83.1469 380.084 129.033 408.388 157.335C436.692 185.637 482.583 185.637 510.887 157.335Z" fill="#FFB8B8"/>
<path d="M324.547 405.206C324.558 405.35 324.57 405.493 324.58 405.625C324.821 408.453 325.96 411.129 327.83 413.263C329.701 415.396 332.204 416.876 334.976 417.486L443.14 441.107C444.078 441.312 445.035 441.416 445.995 441.416C448.896 441.415 451.717 440.462 454.025 438.704C456.333 436.946 458 434.48 458.771 431.683C459.003 430.823 459.256 429.941 459.532 429.027V429.016C463.181 416.626 469.696 399.761 479.011 378.565C481.116 373.77 483.369 368.747 485.768 363.496C486.209 362.526 486.661 361.545 487.102 360.564C492.052 349.817 497.574 338.185 503.671 325.666C506.653 319.547 508.907 313.099 510.384 306.454C514.311 288.911 512.76 270.586 505.942 253.953C504.553 250.566 502.951 247.271 501.146 244.087C494.027 231.538 483.939 220.925 471.767 213.179C459.594 205.433 445.707 200.789 431.322 199.655C429.04 199.467 426.77 199.379 424.488 199.379C401.664 199.48 379.756 208.37 363.318 224.202C353.617 233.607 346.252 245.15 341.81 257.91C341.524 258.714 341.259 259.53 340.995 260.346C336.922 273.256 333.653 286.405 331.205 299.719C329.74 307.622 328.549 315.415 327.59 323.01C324.228 350.272 323.21 377.771 324.547 405.206V405.206Z" fill="#AE2020"/>
<path d="M276.914 543.696C342.627 581.044 420.224 591.579 493.518 573.105C500.187 571.429 506.764 569.519 513.25 567.373C507.496 548.612 500.627 530.212 492.68 512.27V512.248C479.429 482.542 467.26 464.365 461.329 456.341C460.354 455.012 459.712 453.468 459.457 451.84C459.202 450.212 459.341 448.546 459.862 446.983L461.704 441.46C462.404 439.371 462.573 437.139 462.194 434.968C461.814 432.797 460.899 430.755 459.532 429.027V429.016C459.411 428.861 459.278 428.707 459.146 428.553C410.962 373.659 326.962 403.608 326.113 403.917L325.693 404.071L325.429 404.435C325.142 404.832 324.856 405.217 324.58 405.625C301.805 437.536 286.67 486.587 276.914 543.696Z" fill="#2F2E41"/>
<path d="M177.871 190.274C178.234 191.866 178.47 193.484 178.577 195.113L305.342 268.237L336.153 250.5L369.001 293.498L317.506 330.198C313.346 333.162 308.336 334.698 303.229 334.573C298.122 334.449 293.193 332.671 289.182 329.508L158.467 226.394C152.568 228.577 146.143 228.913 140.049 227.357C133.954 225.8 128.478 222.426 124.348 217.681C120.218 212.937 117.631 207.047 116.93 200.797C116.23 194.546 117.449 188.23 120.425 182.689C123.402 177.148 127.995 172.645 133.594 169.778C139.193 166.911 145.532 165.816 151.768 166.639C158.005 167.463 163.842 170.165 168.505 174.387C173.168 178.609 176.435 184.15 177.871 190.274V190.274Z" fill="#FFB8B8"/>
<path d="M307.284 267.114V267.125C307.744 268.784 308.523 270.338 309.577 271.699L331.205 299.719L341.513 313.09L350.552 324.796C351.717 326.306 353.195 327.548 354.883 328.436C356.572 329.325 358.432 329.839 360.337 329.943C362.242 330.048 364.147 329.741 365.923 329.043C367.698 328.344 369.303 327.272 370.626 325.898L403.454 291.816L417.003 277.74C424.7 271.734 429.702 262.92 430.911 253.232C432.12 243.544 429.437 233.772 423.451 226.059C417.465 218.346 408.664 213.321 398.979 212.087C389.293 210.852 379.513 213.509 371.784 219.474L363.318 224.202L313.612 252.002C311.022 253.454 308.992 255.73 307.846 258.468C306.699 261.207 306.502 264.25 307.284 267.114H307.284Z" fill="#AE2020"/>
<path d="M448.166 89.4207C429.538 102.169 405.078 115.274 386.052 101.698C373.559 92.7835 369.623 76.2764 374.689 61.7903C383.8 35.7401 408.83 24.2715 432.765 15.4807C463.881 4.05254 497.761 -5.03904 529.883 3.14522C562.005 11.3295 590.394 42.4273 584.595 75.0618C579.932 101.306 555.174 123.143 558.689 149.565C562.226 176.157 592.134 190.154 618.538 194.907C644.942 199.66 674.489 201.187 693.464 220.151C717.671 244.343 711.626 287.583 688.849 313.125C666.071 338.667 631.699 350.245 598.392 358.116C554.262 368.544 506.532 374.024 464.62 356.718C422.708 339.411 390.093 292.823 402.234 249.137C407.362 230.684 419.443 215.089 431.119 199.906C442.795 184.724 454.618 168.847 459.071 150.22C462.783 134.697 460.036 116.675 449.741 105.031C447.869 102.993 446.69 100.414 446.375 97.6645C446.06 94.915 446.624 92.1363 447.987 89.7275L448.166 89.4207Z" fill="#2F2E41"/>
</g>
<defs>
<clipPath id="clip0_15_295">
<rect width="709" height="582" fill="white"/>
</clipPath>
</defs>
</svg>
